<?xml version="1.0" standalone="no"?><!DOCTYPE svg PUBLIC "-//W3C//DTD SVG 1.1//EN" "http://www.w3.org/Graphics/SVG/1.1/DTD/svg11.dtd"><svg t="1760443641547" class="icon" viewBox="0 0 1024 1024" version="1.1" xmlns="http://www.w3.org/2000/svg" p-id="1601" xmlns:xlink="http://www.w3.org/1999/xlink" width="200" height="200"><path d="M566.186667 235.434667a32 32 0 1 0 0 64 266.666667 266.666667 0 0 1 266.666666 266.666666v213.333334c0 29.44-23.893333 53.333333-53.333333 53.333333h-213.333333a266.666667 266.666667 0 0 1-266.666667-266.666667 32 32 0 0 0-64 0 330.666667 330.666667 0 0 0 330.666667 330.666667h213.333333a117.333333 117.333333 0 0 0 117.333333-117.333333v-213.333334a330.666667 330.666667 0 0 0-330.666666-330.666666z" fill="#000000" p-id="1602"></path><path d="M362.666667 128a234.666667 234.666667 0 0 1 0 469.333333H170.666667a42.666667 42.666667 0 0 1-42.666667-42.666666V362.666667A234.666667 234.666667 0 0 1 362.666667 128z m0 64a170.666667 170.666667 0 0 0-170.666667 170.666667v170.666666h170.666667a170.666667 170.666667 0 0 0 170.453333-162.133333l0.213333-8.533333a170.666667 170.666667 0 0 0-170.666666-170.666667z" fill="#FF5C02" p-id="1603"></path></svg>